<?xml version="1.0" encoding="UTF-8" standalone="no"?>
<!-- Created with Inkscape (http://www.inkscape.org/) -->

<svg
   xmlns:dc="http://purl.org/dc/elements/1.1/"
   xmlns:cc="http://creativecommons.org/ns#"
   xmlns:rdf="http://www.w3.org/1999/02/22-rdf-syntax-ns#"
   xmlns:svg="http://www.w3.org/2000/svg"
   xmlns="http://www.w3.org/2000/svg"
   xmlns:sodipodi="http://sodipodi.sourceforge.net/DTD/sodipodi-0.dtd"
   xmlns:inkscape="http://www.inkscape.org/namespaces/inkscape"
   width="2000"
   height="500"
   viewBox="0 0 2000.0001 499.99996"
   id="svg2"
   version="1.1"
   inkscape:version="0.91 r"
   sodipodi:docname="c6.svg"
   inkscape:export-filename="/opt/datalayer/datalayer-website/src/main/webapp/content/datalayer.io/ext/caroussel/index/c6.png"
   inkscape:export-xdpi="90"
   inkscape:export-ydpi="90">
  <defs
     id="defs4">
    <clipPath
       clipPathUnits="userSpaceOnUse"
       id="clipPath4299">
      <rect
         style="opacity:1;fill:#0088e8;fill-opacity:1;fill-rule:nonzero;stroke:#000000;stroke-width:1.31842554;stroke-linejoin:round;stroke-miterlimit:4;stroke-dasharray:none;stroke-dashoffset:0;stroke-opacity:1"
         id="rect4301"
         width="1057.0908"
         height="351.48468"
         x="0.41522223"
         y="-658.87628"
         ry="3.2903802"
         transform="scale(1,-1)"
         clip-path="none" />
    </clipPath>
  </defs>
  <sodipodi:namedview
     id="base"
     pagecolor="#ffffff"
     bordercolor="#666666"
     borderopacity="1.0"
     inkscape:pageopacity="0.0"
     inkscape:pageshadow="2"
     inkscape:zoom="0.39956055"
     inkscape:cx="101.81107"
     inkscape:cy="-322.94564"
     inkscape:document-units="px"
     inkscape:current-layer="layer1"
     showgrid="false"
     inkscape:window-width="2300"
     inkscape:window-height="1357"
     inkscape:window-x="0"
     inkscape:window-y="24"
     inkscape:window-maximized="1"
     units="px" />
  <metadata
     id="metadata7">
    <rdf:RDF>
      <cc:Work
         rdf:about="">
        <dc:format>image/svg+xml</dc:format>
        <dc:type
           rdf:resource="http://purl.org/dc/dcmitype/StillImage" />
        <dc:title />
      </cc:Work>
    </rdf:RDF>
  </metadata>
  <g
     inkscape:label="Layer 1"
     inkscape:groupmode="layer"
     id="layer1"
     transform="translate(0,-552.36192)"
     style="opacity:0.38299997">
    <g
       id="g4455"
       transform="matrix(3.1478751,0,0,3.1478751,-2431.1662,-878.16127)"
       inkscape:export-filename="/d/rect4451.png"
       inkscape:export-xdpi="72"
       inkscape:export-ydpi="72">
      <path
         sodipodi:nodetypes="ccccccccccccc"
         inkscape:connector-curvature="0"
         id="path4382-9"
         d="m 1022.955,550.73587 c 0.7649,-30.53614 -24.43487,-64.52587 -49.37227,-80.78529 -36.04952,-24.07534 -68.94352,-31.76806 -102.6427,-30.30635 8.72503,8.06522 26.30818,11.26414 18.25855,33.55627 -10.69194,-2.4628 -9.86889,-5.88843 -25.09705,-8.5336 -17.56638,-4.48299 -25.35041,-9.02576 -29.67862,-18.6075 -7.39505,29.82544 8.72776,51.81159 28.62152,72.54076 -15.11166,0.42163 -28.63702,-4.44442 -40.95838,-13.32382 -0.9597,26.89907 16.55378,38.40382 30.59542,52.80178 -15.14313,-5.69973 -26.46571,-1.8481 -37.99754,1.48042 37.69933,4.24956 62.00167,45.03861 92.48414,68.5331 32.8981,0.98667 56.63213,-9.66384 79.44941,-22.69983 19.39902,-13.01205 37.29482,-27.60779 36.33752,-54.65594 z"
         style="fill:#ff6600;fill-opacity:1;fill-rule:evenodd;stroke:#000000;stroke-width:0;stroke-linecap:butt;stroke-linejoin:miter;stroke-miterlimit:4;stroke-dasharray:none;stroke-opacity:1" />
      <path
         sodipodi:nodetypes="ccscc"
         inkscape:connector-curvature="0"
         id="path4384-6"
         d="m 1009.7297,587.02962 c -35.49304,-1.12993 -62.39969,-14.92276 -85.25059,-35.53192 -2.04377,10.92967 -0.005,24.27684 10.3462,41.35451 5.82529,9.61057 15.46093,16.4129 30.82863,23.72265 17.58101,-6.95934 33.05474,-16.02596 44.07576,-29.54524 z"
         style="fill:#ffffff;fill-opacity:1;fill-rule:evenodd;stroke:#ffffff;stroke-width:2;stroke-linecap:butt;stroke-linejoin:miter;stroke-miterlimit:4;stroke-dasharray:none;stroke-opacity:1" />
      <path
         sodipodi:nodetypes="ccccc"
         inkscape:connector-curvature="0"
         id="path4386-9"
         d="m 986.67079,522.50948 c -7.64262,-11.02775 -27.15834,-15.14103 -31.61231,-14.42536 13.5356,7.11144 6.61223,17.17522 19.27544,21.82748 5.46258,0.9906 11.65189,-1.74142 12.39417,-7.31746 z"
         style="fill:#ffffff;fill-rule:evenodd;stroke:#000000;stroke-width:2;stroke-linecap:butt;stroke-linejoin:miter;stroke-miterlimit:4;stroke-dasharray:none;stroke-opacity:0" />
      <path
         sodipodi:nodetypes="ccccccccc"
         inkscape:connector-curvature="0"
         id="path4388-8"
         d="m 979.15704,609.77749 0.0705,-0.38069 c 0.19165,-6.45435 3.65591,-14.54073 5.5407,-25.65216 -11.94454,9.71606 -21.09312,15.19265 -30.91833,24.97032 -0.33657,-12.14532 -1.16951,-8.44942 2.48855,-33.07695 -9.37359,6.95417 -14.71952,11.99226 -20.87285,17.70973 1.88051,-6.78387 4.57556,-12.76702 7.74015,-26.35217 -6.45902,3.01581 -8.86666,7.81993 -15.55621,10.13163 -0.71968,-6.99773 3.06195,-13.91373 5.02968,-18.55214"
         style="fill:none;fill-opacity:1;fill-rule:evenodd;stroke:#ffffff;stroke-width:2;stroke-linecap:butt;stroke-linejoin:round;stroke-miterlimit:4;stroke-dasharray:none;stroke-opacity:1" />
      <path
         style="fill:#1abc9c;fill-opacity:1;fill-rule:evenodd;stroke:#000000;stroke-width:0;stroke-linecap:butt;stroke-linejoin:miter;stroke-miterlimit:4;stroke-dasharray:none;stroke-opacity:1"
         d="m 1023.4557,550.65244 c 0.7649,-30.53614 -24.43484,-64.52587 -49.37224,-80.78529 -36.04952,-24.07534 -68.94352,-31.76806 -102.64269,-30.30635 8.72503,8.06522 26.30817,11.26414 18.25854,33.55627 -10.69193,-2.4628 -9.86888,-5.88843 -25.09704,-8.5336 -17.56638,-4.48299 -25.35041,-9.02576 -29.67862,-18.6075 -7.39505,29.82544 8.72776,51.81159 28.62152,72.54076 -15.11166,0.42163 -28.63702,-4.44442 -40.95838,-13.32382 -0.9597,26.89907 16.55378,38.40382 30.59542,52.80178 -15.14313,-5.69973 -26.46571,-1.8481 -37.99754,1.48042 37.69933,4.24956 62.00167,45.03861 92.48413,68.53309 32.8981,0.9867 56.63213,-9.6638 79.44941,-22.69982 19.39899,-13.01205 37.29479,-27.60779 36.33749,-54.65594 z"
         id="path4390-8"
         inkscape:connector-curvature="0"
         sodipodi:nodetypes="ccccccccccccc" />
      <path
         style="fill:#ffffff;fill-opacity:1;fill-rule:evenodd;stroke:#ffffff;stroke-width:2;stroke-linecap:butt;stroke-linejoin:miter;stroke-miterlimit:4;stroke-dasharray:none;stroke-opacity:1"
         d="m 1010.2305,586.94619 c -35.49311,-1.12993 -62.39976,-14.92276 -85.25066,-35.53192 -2.04377,10.92967 -0.005,24.27684 10.3462,41.35451 5.82529,9.61057 15.46093,16.4129 30.82863,23.72262 17.58101,-6.95931 33.05474,-16.02593 44.07583,-29.54521 z"
         id="path4392-2"
         inkscape:connector-curvature="0"
         sodipodi:nodetypes="ccscc" />
      <path
         style="fill:#ffffff;fill-rule:evenodd;stroke:#000000;stroke-width:2;stroke-linecap:butt;stroke-linejoin:miter;stroke-miterlimit:4;stroke-dasharray:none;stroke-opacity:0"
         d="m 987.17152,522.42605 c -7.64262,-11.02775 -27.15834,-15.14103 -31.61231,-14.42536 13.5356,7.11144 6.61223,17.17522 19.27544,21.82748 5.46258,0.9906 11.65189,-1.74142 12.39417,-7.31746 z"
         id="path4394-0"
         inkscape:connector-curvature="0"
         sodipodi:nodetypes="ccccc" />
      <path
         style="fill:none;fill-opacity:1;fill-rule:evenodd;stroke:#ffffff;stroke-width:2;stroke-linecap:butt;stroke-linejoin:round;stroke-miterlimit:4;stroke-dasharray:none;stroke-opacity:1"
         d="m 979.65777,609.69406 0.0705,-0.38069 c 0.19165,-6.45435 3.65591,-14.54073 5.5407,-25.65216 -11.94454,9.71606 -21.09312,15.19265 -30.91833,24.97032 -0.33657,-12.14532 -1.16951,-8.44942 2.48855,-33.07695 -9.37359,6.95417 -14.71952,11.99226 -20.87285,17.70973 1.88051,-6.78387 4.57556,-12.76702 7.74015,-26.35217 -6.45902,3.01581 -8.86666,7.81993 -15.55621,10.13163 -0.71968,-6.99773 3.06195,-13.91373 5.02968,-18.55214"
         id="path4396-8"
         inkscape:connector-curvature="0"
         sodipodi:nodetypes="ccccccccc" />
    </g>
  </g>
</svg>
